<svg xmlns="http://www.w3.org/2000/svg" viewBox="0 0 64 64">
  <rect width="64" height="64" rx="16" fill="#070707"/>
  <circle cx="32" cy="32" r="24" fill="none" stroke="#d80f1d" stroke-width="2.5" opacity="0.9"/>
  <path d="M40.8 21.8c-1.8-1.8-4.4-2.8-8-2.8-6.8 0-10.8 3.7-10.8 8.8 0 3.9 2.2 6.4 6.9 7.9l4.4 1.4c2.7.9 3.9 1.9 3.9 3.8 0 2.4-2 4-5.7 4-3.3 0-6.1-1-8.5-3l-3.1 4.5c3 2.6 7 4 11.6 4 7.7 0 12.4-3.8 12.4-9.5 0-4.5-2.5-7.1-7.7-8.7l-4.5-1.3c-2.4-.7-3.3-1.7-3.3-3.2 0-2.1 1.8-3.4 4.9-3.4 2.7 0 4.9.8 6.8 2.4l3.7-4.9z" fill="#f7f5f1"/>
</svg>
