<?xml version="1.0" standalone="no"?>
<!DOCTYPE svg PUBLIC "-//W3C//DTD SVG 20010904//EN"
 "http://www.w3.org/TR/2001/REC-SVG-20010904/DTD/svg10.dtd">
<svg version="1.0" xmlns="http://www.w3.org/2000/svg"
 width="1280.000000pt" height="1280.000000pt" viewBox="0 0 1280.000000 1280.000000"
 preserveAspectRatio="xMidYMid meet">

<g transform="translate(0.000000,1280.000000) scale(0.100000,-0.100000)"
fill="#000000" stroke="none">
<path d="M0 6400 l0 -6400 6400 0 6400 0 0 6400 0 6400 -6400 0 -6400 0 0
-6400z m5010 230 c0 -18 -7 -20 -65 -20 -58 0 -65 2 -65 20 0 18 7 20 65 20
58 0 65 -2 65 -20z m-318 -50 c42 -12 78 -52 78 -86 0 -32 -37 -34 -42 -3 -2
12 -15 31 -30 42 -39 29 -98 15 -113 -27 -8 -24 -6 -31 13 -46 13 -11 43 -22
68 -26 65 -9 104 -45 104 -94 0 -56 -33 -91 -93 -97 -83 -10 -147 36 -147 104
0 46 31 42 41 -5 9 -43 34 -61 86 -62 49 0 73 19 73 60 0 34 -16 45 -91 61
-30 7 -62 21 -76 35 -42 42 -24 113 36 138 44 18 47 18 93 6z m1776 -16 c13
-9 30 -31 38 -49 16 -40 18 -144 3 -198 -25 -90 -165 -105 -209 -21 -10 18
-15 58 -15 120 0 78 3 97 21 121 38 51 107 62 162 27z m300 0 c23 -15 42 -52
42 -80 0 -23 -38 -17 -42 7 -2 12 -15 31 -30 42 -36 27 -94 17 -110 -19 -20
-44 7 -65 112 -88 73 -15 95 -102 41 -157 -24 -24 -38 -29 -76 -29 -80 0 -135
43 -135 106 0 45 32 40 41 -6 9 -44 32 -60 85 -60 50 0 74 19 74 60 0 34 -16
45 -91 61 -61 13 -99 46 -99 86 0 83 110 127 188 77z m-1728 -4 c0 -18 -7 -20
-80 -20 l-80 0 0 -55 0 -55 80 0 c73 0 80 -2 80 -20 0 -18 -7 -20 -80 -20
l-80 0 0 -55 0 -55 85 0 c69 0 85 -3 85 -15 0 -12 -18 -15 -105 -15 l-105 0 0
165 0 165 100 0 c93 0 100 -1 100 -20z m276 -125 c61 -199 59 -187 32 -183
-17 2 -25 13 -31 41 l-9 37 -72 0 -73 0 -12 -40 c-9 -29 -17 -40 -31 -40 -11
0 -20 3 -20 6 0 9 91 308 97 317 3 4 21 7 41 5 l35 -3 43 -140z m223 -2 c25
-82 48 -152 53 -157 4 -6 8 61 8 147 0 150 1 157 20 157 19 0 20 -7 20 -165
l0 -165 -43 0 -42 0 -44 148 c-24 81 -47 150 -50 154 -3 4 -4 -63 -2 -147 l3
-155 -26 0 -26 0 0 158 c0 87 3 162 7 165 3 4 23 7 42 7 l37 0 43 -147z m524
130 c3 -10 13 -80 23 -155 10 -76 20 -135 23 -132 3 3 15 72 26 152 l20 147
38 3 37 3 0 -165 c0 -151 -2 -166 -17 -166 -17 0 -18 13 -16 157 2 180 -7 173
-33 -24 l-17 -133 -37 0 -38 0 -10 73 c-6 39 -17 110 -24 157 l-13 85 -3 -157
c-2 -147 -4 -158 -21 -158 -18 0 -19 10 -20 155 -1 86 1 160 4 165 11 18 73
12 78 -7z m1027 -3 c0 -17 -7 -20 -45 -20 l-45 0 0 -130 0 -130 45 0 c33 0 45
-4 45 -15 0 -12 -18 -15 -105 -15 -87 0 -105 3 -105 15 0 11 11 15 40 15 l40
0 0 130 0 130 -40 0 c-33 0 -40 3 -40 20 0 19 7 20 105 20 98 0 105 -1 105
-20z m120 -57 l1 -78 72 78 c50 54 79 77 95 77 l23 0 -28 -34 c-15 -18 -47
-56 -71 -84 l-43 -51 70 -78 c39 -43 71 -81 71 -84 0 -3 -11 -4 -25 -1 -16 3
-51 32 -88 73 -33 38 -65 69 -69 69 -4 0 -8 -31 -8 -70 0 -63 -2 -70 -20 -70
-19 0 -20 7 -20 165 0 158 1 165 20 165 18 0 20 -7 20 -77z m460 57 c0 -17 -7
-20 -40 -20 l-40 0 0 -130 0 -130 40 0 c29 0 40 -4 40 -15 0 -12 -18 -15 -105
-15 -85 0 -105 3 -105 14 0 10 14 16 43 18 l42 3 3 128 3 127 -46 0 c-38 0
-45 3 -45 20 0 19 7 20 105 20 98 0 105 -1 105 -20z m122 -127 l3 -148 88 -3
c68 -2 87 -6 87 -17 0 -12 -20 -15 -110 -15 l-110 0 0 165 c0 158 1 165 20
165 18 0 20 -8 22 -147z m461 133 c8 -20 -2 -26 -45 -26 l-38 0 0 -130 0 -130
43 0 c32 0 44 -4 44 -15 0 -12 -19 -15 -109 -15 -89 0 -108 3 -108 15 0 11 12
15 45 15 l45 0 0 130 0 130 -45 0 c-38 0 -45 3 -45 20 0 19 7 20 104 20 80 0
105 -3 109 -14z"/>
<path d="M6354 6527 c-24 -21 -27 -32 -31 -98 -6 -102 14 -143 73 -147 64 -5
79 19 79 130 0 86 -1 91 -28 114 -35 30 -59 30 -93 1z"/>
<path d="M5212 6495 c-11 -38 -24 -82 -28 -97 l-6 -28 56 0 c39 0 56 4 55 13
0 6 -13 50 -28 97 l-28 85 -21 -70z"/>
</g>
</svg>
